<?xml version="1.0" encoding="UTF-8"?>
<svg viewBox="0 0 66.399757 81.362862" xmlns="http://www.w3.org/2000/svg">
 <g transform="translate(-383.49 -528.85)" stroke-linejoin="round">
  <path d="m388.15 530.07c-3.7297 0.72371-3.2906 2.4129-3.6559 3.9158l1.7687 71.534c-0.07804 2.1863 0.46237 3.7996 3.0254 3.5393l54.516 0.15412c1.8831-0.30468 3.4347-1.0701 3.5616-3.8152l1.5283-72.413c-0.17915-3.2202-2.1583-3.1055-4.0596-3.135l-56.684 0.21916z" fill="none" stroke="#000" stroke-linecap="round" stroke-width="2"/>
  <path d="m392.76 545.62v12.287l11.919-0.4915 1.0364-11.304-12.955-0.49149z" fill="#fff" fill-opacity=".99219" stroke="#000"/>
  <path d="m410.63 554.23 31.803-0.41842" fill="#fff" fill-opacity=".99219" stroke="#000"/>
  <path d="m409.32 571.7h31.809" fill="#fff" fill-opacity=".99219" stroke="#000"/>
  <path d="m409.92 589.7 31.704 0.29587" fill="#fff" fill-opacity=".99219" stroke="#000"/>
  <path d="m396.46 549.43-1.2314 1.0202 3.5448 4.2762 10.748-9.4842-1.8507-1.9067-8.6656 8.6368-2.5448-2.5422z" fill="#f00" fill-opacity=".99219" stroke="#f00"/>
  <path d="m392.89 563.1v12.287l11.919-0.4915 1.0364-11.304-12.955-0.49149z" fill="#fff" fill-opacity=".99219" stroke="#000"/>
  <path d="m393.39 581.54v12.287l11.919-0.4915 1.0364-11.304-12.955-0.49149z" fill="#fff" fill-opacity=".99219" stroke="#000"/>
 </g>
</svg>
